<svg id="Layer_1" data-name="Layer 1" xmlns="http://www.w3.org/2000/svg" viewBox="0 0 443.16 246.6"><defs><style>.cls-1,.cls-3{fill:#fff;}.cls-2,.cls-3{font-size:67.76px;stroke-miterlimit:10;font-family:HiraKakuStdN-W8-83pv-RKSJ-H, Hiragino Kaku Gothic StdN;}.cls-2{fill:none;stroke:#fff;}.cls-3{stroke:#000;stroke-width:2px;}</style></defs><title>logo</title><path class="cls-1" d="M197.14,148.82l105,62.41L300.6,333.37,194.05,393.11,89,330.7l1.55-122.15,106.55-59.73m0-1.16L89.6,208,88,331.26l106,63L301.6,334l1.56-123.3-106-63Z" transform="translate(-88.04 -147.66)"/><path class="cls-1" d="M196.41,167.65l89,52.89-1.31,103.52-90.3,50.62-89-52.89,1.31-103.52,90.3-50.62m0-1.15-91.31,51.18-1.33,104.67,90,53.48,91.3-51.18L286.41,220l-90-53.48Z" transform="translate(-88.04 -147.66)"/><text class="cls-2" transform="translate(24.96 144.2) scale(0.99 1)">RKT</text><text class="cls-3" transform="translate(235.97 144.58) scale(0.99 1)">Rokit</text></svg>